<?xml version="1.0" encoding="utf-8"?>
<!-- Generator: Adobe Illustrator 27.5.0, SVG Export Plug-In . SVG Version: 6.00 Build 0)  -->
<svg version="1.1" xmlns="http://www.w3.org/2000/svg" xmlns:xlink="http://www.w3.org/1999/xlink" width='300' height='1000'
	 viewBox="-26 815 300 80" style="enable-background:new 0 0 300 80;" xml:space="preserve">
<g id="BACKGROUND">
</g>
<g id="OBJECTS">
		<g>
		<path style="fill:#1D1D1B;" d="M143.042,410.532c-13.793,3.831-27.438,6.584-41.82,6.792c-13.417,0.194-25.936-2.315-38.911-4.83
			c-0.003-0.148-0.1-0.29-0.304-0.296c-2.515-0.066-4.222-2.505-3.439-4.895c0.642-1.959,2.745-3.191,4.761-2.689
			c1.876,0.468,2.987,2.753,1.859,4.453c-1.284,1.936-3.855,0.634-4.172-1.259c-0.105-0.628-1.021-0.429-1.057,0.143
			c-0.163,2.613,3.326,4.049,5.328,2.681c2.375-1.624,1.776-5.438-0.566-6.755c-2.622-1.475-6.04,0.012-7.123,2.701
			c-0.654,1.626-0.348,3.358,0.58,4.594c-5.39-1.693-11.229-0.091-15.27,4.095c-0.276,0.286-0.139,0.734,0.225,0.854
			c7.45,2.463,15.593,4.052,22.491-0.698c0.343-0.236,0.306-0.755-0.034-0.919c11.407,3.307,24.09,4.189,35.631,4.09
			c14.109-0.122,28.819-2.127,42.14-6.904C144.08,411.434,143.798,410.322,143.042,410.532z M54.49,417.514
			c-1.422-0.02-8.864-0.468-9.78-2.119c-0.017-0.031-0.013-0.065-0.023-0.097c0.075,0.067,0.171,0.115,0.3,0.115
			c6.15,0.023,12.301,0.029,18.451,0.073C60.667,416.927,57.715,417.561,54.49,417.514z M65.362,414.451
			c-6.768,0.033-13.536,0.007-20.304,0.006c1.305-1.245,5.402-2.627,6.419-2.816c2.572-0.479,5.104-0.201,7.53,0.602
			c0.015,0.01,0.014,0.028,0.034,0.036c2.078,0.83,4.226,1.549,6.416,2.188C65.426,414.461,65.397,414.451,65.362,414.451z"/>
		<path style="fill:#1D1D1B;" d="M112.997,411.691c13.321,4.777,28.031,6.782,42.14,6.904c11.54,0.099,24.224-0.783,35.631-4.09
			c-0.34,0.164-0.377,0.683-0.034,0.919c6.898,4.749,15.04,3.161,22.491,0.698c0.365-0.121,0.502-0.568,0.225-0.854
			c-4.041-4.186-9.88-5.788-15.27-4.095c0.928-1.236,1.234-2.968,0.58-4.594c-1.082-2.689-4.501-4.175-7.123-2.701
			c-2.342,1.317-2.941,5.131-0.566,6.755c2.002,1.368,5.491-0.068,5.328-2.681c-0.036-0.572-0.951-0.771-1.057-0.143
			c-0.317,1.893-2.888,3.195-4.172,1.259c-1.128-1.7-0.016-3.986,1.859-4.453c2.016-0.503,4.12,0.729,4.761,2.689
			c0.783,2.39-0.924,4.829-3.439,4.895c-0.204,0.005-0.3,0.147-0.304,0.296c-12.975,2.515-25.494,5.024-38.911,4.83
			c-14.382-0.208-28.027-2.961-41.82-6.792C112.56,410.322,112.278,411.434,112.997,411.691z M192.922,415.486
			c6.15-0.044,12.301-0.051,18.451-0.073c0.129,0,0.225-0.049,0.3-0.115c-0.01,0.032-0.006,0.066-0.023,0.097
			c-0.917,1.651-8.358,2.099-9.781,2.119C198.643,417.561,195.691,416.927,192.922,415.486z M190.901,414.466
			c2.19-0.639,4.338-1.358,6.416-2.188c0.02-0.008,0.019-0.025,0.034-0.036c2.426-0.803,4.958-1.081,7.531-0.602
			c1.017,0.19,5.114,1.571,6.419,2.816c-6.768,0.001-13.536,0.027-20.304-0.006C190.961,414.451,190.933,414.461,190.901,414.466z"
			/>
	</g>
</g>
</svg>
