<?xml version="1.0" encoding="utf-8"?>
<!-- Generator: Adobe Illustrator 27.5.0, SVG Export Plug-In . SVG Version: 6.00 Build 0)  -->
<svg version="1.1" xmlns="http://www.w3.org/2000/svg" xmlns:xlink="http://www.w3.org/1999/xlink" width='300' height='1000'
	 viewBox="230 750 300 80" style="enable-background:new 0 0 600 80;" xml:space="preserve">
<g id="BACKGROUND">
</g>
<g id="OBJECTS">
	<g>
		<path style="fill:#1D1D1B;" d="M390.87,294.669c-3.798,6.646-10.71,8.744-17.793,10.037c-4.392,0.802-14.422,2.088-19.661-0.988
			c3.485-1.073,5.469-5.373,3.156-8.496c-1.736-2.344-5.661-2.26-6.899,0.26c-0.265-0.036-0.543,0.082-0.649,0.435
			c-1.057,3.484,0.012,5.982,2.134,7.733c-12.841,7.23-27.888-8.784-41.223-2.671c-0.16,0.073-0.245,0.197-0.278,0.336
			c-0.44-0.083-0.88-0.122-1.319-0.141c-4.223-2.582-9.153-3.345-14.043-2.551c-0.376,0.061-0.375,0.586-0.099,0.761
			c2.302,1.457,4.603,2.915,6.905,4.373c-1.326,1.103-2.422,2.489-3.147,4.045c-0.114,0.245-0.087,0.598,0.192,0.732
			c0.299,0.143,0.602,0.266,0.907,0.372c0.043,0.261,0.312,0.487,0.591,0.299c0.045-0.03,0.089-0.062,0.134-0.092
			c4.56,1.152,9.431-1.588,9.841-6.698c0.023-0.292-0.273-0.392-0.501-0.312c0.061-0.03,0.1-0.082,0.121-0.147
			c0.205-0.006,0.405-0.028,0.612-0.026c0.137,0.137,0.327,0.214,0.546,0.141c12.87-4.298,30.031,10.942,41.524,2.144
			c4.255,2.874,11.578,3.384,15.616,2.941c8.85-0.97,20.204-2.97,23.9-12.248C391.567,294.578,391.04,294.371,390.87,294.669z
			 M295.802,299.415c2.863,0.532,5.64,1.203,8.418,2.141c0.417,0.141,0.595-0.517,0.181-0.658c-2.341-0.795-4.783-1.387-7.248-1.716
			c3.451-0.131,6.749,0.59,9.917,2.016c-1.893,0.173-3.709,0.903-5.269,2.017c-0.006-0.004-0.009-0.01-0.015-0.014
			C299.792,301.939,297.797,300.677,295.802,299.415z M300.973,308.289c2.509-1.76,5.011-3.665,7.678-5.133
			C307.465,306.576,304.423,308.752,300.973,308.289z M308.993,302.156c-2.744,2.264-6.034,4.016-9.069,5.91
			c-0.257-0.073-0.514-0.163-0.773-0.267c1.932-3.685,5.506-5.553,9.507-5.819c0.079,0.042,0.159,0.076,0.237,0.118
			c0.065,0.035,0.126,0.035,0.18,0.021C309.049,302.133,309.017,302.137,308.993,302.156z M352.585,302.738
			c-0.045,0.028-0.089,0.055-0.123,0.09c-0.048,0.034-0.096,0.072-0.144,0.105c-1.695-1.435-2.588-3.548-2.087-6.623
			c1.321-2.077,4.344-2.451,5.69-0.001c1.352,2.458-0.181,4.633-2.235,5.86c-0.097-0.061-0.229-0.072-0.346,0.021
			C353.089,302.389,352.837,302.559,352.585,302.738z"/>
		<path style="fill:#1D1D1B;" d="M373.528,294.908c3.695,9.278,15.049,11.278,23.9,12.248c4.038,0.443,11.361-0.068,15.616-2.941
			c11.493,8.799,28.654-6.442,41.524-2.144c0.219,0.073,0.409-0.004,0.546-0.141c0.207-0.003,0.407,0.02,0.612,0.026
			c0.022,0.065,0.061,0.117,0.122,0.147c-0.227-0.08-0.524,0.02-0.501,0.312c0.409,5.111,5.28,7.85,9.84,6.698
			c0.045,0.03,0.089,0.062,0.134,0.092c0.279,0.188,0.548-0.038,0.591-0.299c0.305-0.106,0.609-0.229,0.907-0.372
			c0.279-0.134,0.306-0.487,0.192-0.732c-0.725-1.556-1.822-2.942-3.147-4.045c2.302-1.458,4.603-2.915,6.905-4.373
			c0.275-0.175,0.276-0.7-0.1-0.761c-4.891-0.794-9.82-0.031-14.043,2.551c-0.439,0.018-0.879,0.058-1.319,0.141
			c-0.033-0.139-0.119-0.263-0.278-0.336c-13.335-6.113-28.382,9.902-41.223,2.671c2.123-1.752,3.191-4.25,2.134-7.733
			c-0.107-0.352-0.385-0.47-0.649-0.435c-1.238-2.52-5.163-2.603-6.899-0.26c-2.313,3.123-0.329,7.422,3.156,8.496
			c-5.24,3.076-15.269,1.789-19.661,0.988c-7.082-1.293-13.995-3.391-17.793-10.037
			C373.923,294.371,373.396,294.578,373.528,294.908z M463.177,303.201c-0.007,0.004-0.009,0.01-0.015,0.014
			c-1.56-1.113-3.376-1.844-5.269-2.017c3.168-1.426,6.466-2.148,9.917-2.016c-2.465,0.329-4.906,0.921-7.248,1.716
			c-0.414,0.141-0.236,0.798,0.181,0.658c2.778-0.938,5.555-1.609,8.418-2.141C467.166,300.677,465.171,301.939,463.177,303.201z
			 M456.312,303.156c2.667,1.468,5.169,3.373,7.678,5.133C460.54,308.752,457.498,306.576,456.312,303.156z M455.886,302.12
			c0.054,0.014,0.115,0.014,0.18-0.021c0.079-0.042,0.159-0.077,0.238-0.118c4.001,0.266,7.575,2.134,9.507,5.819
			c-0.259,0.104-0.516,0.193-0.773,0.267c-3.035-1.894-6.325-3.645-9.069-5.91C455.946,302.137,455.914,302.133,455.886,302.12z
			 M411.623,302.189c-0.117-0.093-0.249-0.082-0.346-0.021c-2.055-1.227-3.587-3.401-2.235-5.86c1.346-2.449,4.37-2.075,5.69,0.001
			c0.501,3.075-0.392,5.188-2.087,6.623c-0.048-0.033-0.096-0.071-0.144-0.105c-0.034-0.034-0.078-0.062-0.123-0.09
			C412.126,302.559,411.874,302.389,411.623,302.189z"/>
	</g>
</g>
</svg>
